# xmcd
#
# Track frame offsets: 
#        150
#        12755
#        25225
#        37527
#        49787
#        60387
#        71740
#        83090
#        93295
#        106060
#        126222
#        138935
#        152977
#        165180
#        176395
#        188595
#        201925
#        212840
#        223040
#        234602
#        245677
#        255895
#        271545
#        284440
#        295210
#        303232
#
# Disc length: 4193 seconds
#
# Revision: 2
# Processed by: cddbd v1.5.1PL2 Copyright (c) Steve Scherf et al.
# Submitted via: ExactAudioCopy v0.95b3
#
DISCID=59105f1a
DTITLE=Jimmy Rogers - The Complete Chess Recordings [CD2]
DYEAR=1997
DGENRE=
TTITLE0=Walking By Myself
TTITLE1=I Can't Believe
TTITLE2=One Kiss
TTITLE3=What Have I Done
TTITLE4=My Baby Don't Love Me No More
TTITLE5=Trace Of You
TTITLE6=Don't You Know My Baby
TTITLE7=Don't Turn Me Down
TTITLE8=Looka Here
TTITLE9=This Has Never Been
TTITLE10=Rock This House
TTITLE11=My Last Meal
TTITLE12=You Don't Know
TTITLE13=Can't Keep From Worrying
TTITLE14=Luedella (Alternate)
TTITLE15=Act Like You Love Me (Alternate)
TTITLE16=What Have I Done (Alternate)
TTITLE17=My Baby Don't Love Me No More (Alternate)
TTITLE18=Trace Of You (Alternate)
TTITLE19=Don't You Know My Baby (Alternate)
TTITLE20=Don't Turn Me Down (Alternate)
TTITLE21=This Has Never Been (Alternate)
TTITLE22=Rock This House (Alternate)
TTITLE23=My Last Meal (Alternate)
TTITLE24=You don't Know (Alternate)
TTITLE25=Can't Keep From Worrying (Alternate)
EXTD=Input by Bill (whall@netcomuk.co.uk)
EXTT0=
EXTT1=
EXTT2=
EXTT3=
EXTT4=
EXTT5=
EXTT6=
EXTT7=
EXTT8=
EXTT9=
EXTT10=
EXTT11=
EXTT12=
EXTT13=
EXTT14=
EXTT15=
EXTT16=
EXTT17=
EXTT18=
EXTT19=
EXTT20=
EXTT21=
EXTT22=
EXTT23=
EXTT24=
EXTT25=
PLAYORDER=
